<?xml version="1.0" encoding="UTF-8" standalone="no"?>
<!-- Created with Inkscape (http://www.inkscape.org/) -->

<svg
   version="1.1"
   id="svg2"
   width="400"
   height="400"
   viewBox="0 0 400 400"
   sodipodi:docname="tomato.svg"
   inkscape:version="1.2.1 (9c6d41e410, 2022-07-14)"
   xmlns:inkscape="http://www.inkscape.org/namespaces/inkscape"
   xmlns:sodipodi="http://sodipodi.sourceforge.net/DTD/sodipodi-0.dtd"
   xmlns="http://www.w3.org/2000/svg"
   xmlns:svg="http://www.w3.org/2000/svg"
   xmlns:rdf="http://www.w3.org/1999/02/22-rdf-syntax-ns#"
   xmlns:cc="http://creativecommons.org/ns#">
  <defs
     id="defs6" />
  <sodipodi:namedview
     id="namedview4"
     pagecolor="#ffffff"
     bordercolor="#666666"
     borderopacity="1.0"
     inkscape:showpageshadow="2"
     inkscape:pageopacity="0.0"
     inkscape:pagecheckerboard="0"
     inkscape:deskcolor="#d1d1d1"
     showgrid="false"
     inkscape:zoom="1"
     inkscape:cx="104"
     inkscape:cy="216.5"
     inkscape:current-layer="g8" />
  <g
     inkscape:groupmode="layer"
     inkscape:label="Image"
     id="g8"
     transform="translate(-185.99999,-185.99999)">
    <circle
       style="fill:#ff4e4d;stroke:#2f384b;stroke-width:8"
       id="TomatoSkin"
       cx="385.99997"
       cy="385.99997"
       r="196" />
    <circle
       style="fill:#992e2e;stroke:#2f384b;stroke-width:8"
       id="TomatoFlesh"
       cx="385.99997"
       cy="385.99997"
       r="164.38708" />
    <path
       style="fill:#05ec8c;stroke:#2f384b;stroke-width:8;stroke-linecap:butt;stroke-linejoin:round"
       d="m 385.99998,331.66867 c 0,0 24.96163,-29.48273 24.96163,-46.44236 0,-34.58913 -49.92326,-33.71703 -49.92326,0 0,17.08286 24.96163,46.44236 24.96163,46.44236 z"
       id="Seed_Acc_1"
       sodipodi:nodetypes="cssc"
       inkscape:transform-center-y="-85.999889" />
    <path
       style="fill:#05ec8c;stroke:#2f384b;stroke-width:8;stroke-linecap:butt;stroke-linejoin:round"
       d="m 424.60407,347.65901 c 0,0 38.49797,-3.1969 50.49024,-15.18917 24.45821,-24.45821 -11.45953,-59.14261 -35.30107,-35.30107 -12.0794,12.0794 -15.18917,50.49024 -15.18917,50.49024 z"
       id="Seed_Acc_2"
       sodipodi:nodetypes="cssc"
       inkscape:transform-center-y="-64.389681"
       inkscape:transform-center-x="-64.473232" />
    <path
       style="fill:#05ec8c;stroke:#2f384b;stroke-width:8;stroke-linecap:butt;stroke-linejoin:round"
       d="m 440.5944,386.2631 c 0,0 29.48273,24.96162 46.44237,24.96162 34.58913,0 33.71702,-49.92324 -10e-6,-49.92324 -17.08284,0 -46.44236,24.96162 -46.44236,24.96162 z"
       id="Seed_Acc_3"
       sodipodi:nodetypes="cssc"
       inkscape:transform-center-y="-1.7255767e-06"
       inkscape:transform-center-x="-85.999885" />
    <path
       style="fill:#05ec8c;stroke:#2f384b;stroke-width:8;stroke-linecap:butt;stroke-linejoin:round"
       d="m 424.60407,424.86718 c 0,0 3.19691,38.49797 15.18918,50.49025 24.4582,24.45821 59.14259,-11.45952 35.30105,-35.30107 -12.07939,-12.07939 -50.49023,-15.18918 -50.49023,-15.18918 z"
       id="Seed_Acc_4"
       sodipodi:nodetypes="cssc"
       inkscape:transform-center-y="64.473231"
       inkscape:transform-center-x="-64.38968" />
    <path
       style="fill:#f6f2eb;stroke:#2f384b;stroke-width:8;stroke-linecap:butt;stroke-linejoin:round"
       d="m 385.99998,440.85753 c 0,0 -24.96162,29.48273 -24.96163,46.44236 0,34.58913 49.92325,33.71702 49.92325,-1e-5 1e-5,-17.08284 -24.96162,-46.44235 -24.96162,-46.44235 z"
       id="Seed_Fore_1"
       sodipodi:nodetypes="cssc"
       inkscape:transform-center-y="85.999887"
       inkscape:transform-center-x="4.9813973e-06" />
    <path
       style="fill:#f6f2eb;stroke:#2f384b;stroke-width:8;stroke-linecap:butt;stroke-linejoin:round"
       d="m 347.39589,424.86719 c 0,0 -38.49796,3.19691 -50.49025,15.18918 -24.45821,24.45821 11.45954,59.14259 35.30107,35.30105 12.07941,-12.07938 15.18918,-50.49023 15.18918,-50.49023 z"
       id="Seed_Fore_2"
       sodipodi:nodetypes="cssc"
       inkscape:transform-center-y="64.389681"
       inkscape:transform-center-x="64.473237" />
    <path
       style="fill:#f6f2eb;stroke:#2f384b;stroke-width:8;stroke-linecap:butt;stroke-linejoin:round"
       d="m 331.40555,386.2631 c 0,0 -29.48272,-24.96161 -46.44237,-24.96162 -34.58913,0 -33.717,49.92324 10e-6,49.92324 17.08285,1e-5 46.44236,-24.96162 46.44236,-24.96162 z"
       id="Seed_Fore_3"
       sodipodi:nodetypes="cssc"
       inkscape:transform-center-y="-1.9132784e-06"
       inkscape:transform-center-x="85.999892" />
    <path
       style="fill:#f6f2eb;stroke:#2f384b;stroke-width:8;stroke-linecap:butt;stroke-linejoin:round"
       d="m 347.39589,347.659 c 0,0 -3.19691,-38.49795 -15.18919,-50.49024 -24.45821,-24.4582 -59.14258,11.45954 -35.30105,35.30108 12.07939,12.0794 50.49024,15.18916 50.49024,15.18916 z"
       id="Seed_Fore_4"
       sodipodi:nodetypes="cssc"
       inkscape:transform-center-y="-64.473239"
       inkscape:transform-center-x="64.389681" />
  </g>
  <metadata
     id="metadata11184">
    <rdf:RDF>
      <cc:Work
         rdf:about="">
        <cc:license
           rdf:resource="http://creativecommons.org/licenses/by/4.0/" />
      </cc:Work>
      <cc:License
         rdf:about="http://creativecommons.org/licenses/by/4.0/">
        <cc:permits
           rdf:resource="http://creativecommons.org/ns#Reproduction" />
        <cc:permits
           rdf:resource="http://creativecommons.org/ns#Distribution" />
        <cc:requires
           rdf:resource="http://creativecommons.org/ns#Notice" />
        <cc:requires
           rdf:resource="http://creativecommons.org/ns#Attribution" />
        <cc:permits
           rdf:resource="http://creativecommons.org/ns#DerivativeWorks" />
      </cc:License>
    </rdf:RDF>
  </metadata>
</svg>
