<svg
	version="1.1"
	id="Layer_1"
	xmlns="http://www.w3.org/2000/svg"
	xmlns:xlink="http://www.w3.org/1999/xlink"
	x="0px"
	y="0px"
	viewBox="-467 269 24 24"
	style="enable-background:new -467 269 24 24;"
	xml:space="preserve"
	height="20px"
	class="Icon--muted"
	>
	<path
	  fill="var(--color-background-lightest)"
	  d="M-450.5,281c0-1.8-1-3.3-2.5-4v2.2l2.5,2.5C-450.5,281.4-450.5,281.2-450.5,281z M-448,281c0,0.9-0.2,1.8-0.5,2.6l1.5,1.5
	  c0.7-1.2,1-2.6,1-4.1c0-4.3-3-7.9-7-8.8v2.1C-450.1,275.1-448,277.8-448,281z M-462.7,272l-1.3,1.3l4.7,4.7h-4.7v6h4l5,5v-6.7
	  l4.3,4.3c-0.7,0.5-1.4,0.9-2.3,1.2v2.1c1.4-0.3,2.6-1,3.7-1.8l2,2l1.3-1.3l-9-9L-462.7,272z M-455,273l-2.1,2.1l2.1,2.1V273z"
	/>
	<path fill="none" d="M-467,269h24v24h-24V269z" />
</svg>