<?xml version="1.0" encoding="UTF-8" standalone="no"?>
<svg
   version="1.1"
   id="Layer_1"
   x="0px"
   y="0px"
   viewBox="-467 269 15 18"
   xml:space="preserve"
   height="15"
   class="Icon--muted"
   width="15"
   xmlns="http://www.w3.org/2000/svg"
   xmlns:svg="http://www.w3.org/2000/svg"><defs
   id="defs9" />
	<path
   fill="var(--color-background-lightest)"
   d="m -455,277.95 c 0,-1.8 -1,-3.3 -2.5,-4 v 2.2 l 2.5,2.5 c 0,-0.3 0,-0.5 0,-0.7 z m 2.5,0 c 0,0.9 -0.2,1.8 -0.5,2.6 l 1.5,1.5 c 0.7,-1.2 1,-2.6 1,-4.1 0,-4.3 -3,-7.9 -7,-8.8 v 2.1 c 2.9,0.8 5,3.5 5,6.7 z m -14.7,-9 -1.3,1.3 4.7,4.7 h -4.7 v 6 h 4 l 5,5 v -6.7 l 4.3,4.3 c -0.7,0.5 -1.4,0.9 -2.3,1.2 v 2.1 c 1.4,-0.3 2.6,-1 3.7,-1.8 l 2,2 1.3,-1.3 -9,-9 z m 7.7,1 -2.1,2.1 2.1,2.1 z"
   id="path2" />
	
</svg>
